<svg width="24" height="24" viewBox="0 0 24 24" fill="none" xmlns="http://www.w3.org/2000/svg">
<path d="M12.3749 20.25H4.47182C4.37667 20.2513 4.28223 20.2334 4.19408 20.1976C4.10593 20.1618 4.02585 20.1087 3.95856 20.0414C3.89128 19.9741 3.83815 19.894 3.80232 19.8059C3.76649 19.7177 3.74868 19.6233 3.74994 19.5281V11.625C3.74994 9.33751 4.65864 7.14371 6.27614 5.5262C7.89365 3.9087 10.0874 3 12.3749 3C13.5076 3 14.6292 3.22309 15.6756 3.65654C16.722 4.08999 17.6728 4.7253 18.4737 5.5262C19.2746 6.32711 19.91 7.27792 20.3434 8.32436C20.7768 9.37079 20.9999 10.4923 20.9999 11.625C20.9999 12.7577 20.7768 13.8792 20.3434 14.9256C19.91 15.9721 19.2746 16.9229 18.4737 17.7238C17.6728 18.5247 16.722 19.16 15.6756 19.5935C14.6292 20.0269 13.5076 20.25 12.3749 20.25Z" stroke="white" stroke-width="1.5" stroke-linecap="round" stroke-linejoin="round"/>
<path d="M13.4531 12C13.4531 12.5954 12.9704 13.0781 12.375 13.0781C11.7796 13.0781 11.2969 12.5954 11.2969 12C11.2969 11.4046 11.7796 10.9219 12.375 10.9219C12.9704 10.9219 13.4531 11.4046 13.4531 12Z" fill="white" stroke="white" stroke-width="0.09375"/>
<path d="M8.95312 12C8.95312 12.5954 8.47043 13.0781 7.875 13.0781C7.27957 13.0781 6.79688 12.5954 6.79688 12C6.79688 11.4046 7.27957 10.9219 7.875 10.9219C8.47043 10.9219 8.95312 11.4046 8.95312 12Z" fill="white" stroke="white" stroke-width="0.09375"/>
<path d="M17.9531 12C17.9531 12.5954 17.4704 13.0781 16.875 13.0781C16.2796 13.0781 15.7969 12.5954 15.7969 12C15.7969 11.4046 16.2796 10.9219 16.875 10.9219C17.4704 10.9219 17.9531 11.4046 17.9531 12Z" fill="white" stroke="white" stroke-width="0.09375"/>
</svg>
